PathFileType	4	(X/Y/Z)	C:/Users/opensim2020/Desktop/walking_exp_matlab/subject06_walking19_straight_03.trc	
DataRate	CameraRate	NumFrames	NumMarkers	Units	OrigDataRate	OrigDataStartFrame	OrigNumFrames	
100.00	100.00	5	49	mm	100.00	3490	358	
Frame#	Time	LFHD			RFHD			LBHD			RBHD			C7			T10			CLAV			STRN			RBAK			LSHO			LUPA			LELB			LFRM			LWRA			LWRB			LFIN			RSHO			RUPA			RELB			RFRM			RWRA			RWRB			RFIN			LASI			RASI			LPSI			RPSI			LTHI			LKNE			LTIB			LANK			LHEE			LTOE			RTHI			RKNE			RTIB			RANK			RHEE			RTOE			*39			*40			*41			*42			*43			*44			*45			*46			*47			*48			
		X1	Y1	Z1	X2	Y2	Z2	X3	Y3	Z3	X4	Y4	Z4	X5	Y5	Z5	X6	Y6	Z6	X7	Y7	Z7	X8	Y8	Z8	X9	Y9	Z9	X10	Y10	Z10	X11	Y11	Z11	X12	Y12	Z12	X13	Y13	Z13	X14	Y14	Z14	X15	Y15	Z15	X16	Y16	Z16	X17	Y17	Z17	X18	Y18	Z18	X19	Y19	Z19	X20	Y20	Z20	X21	Y21	Z21	X22	Y22	Z22	X23	Y23	Z23	X24	Y24	Z24	X25	Y25	Z25	X26	Y26	Z26	X27	Y27	Z27	X28	Y28	Z28	X29	Y29	Z29	X30	Y30	Z30	X31	Y31	Z31	X32	Y32	Z32	X33	Y33	Z33	X34	Y34	Z34	X35	Y35	Z35	X36	Y36	Z36	X37	Y37	Z37	X38	Y38	Z38	X39	Y39	Z39	X40	Y40	Z40	X41	Y41	Z41	X42	Y42	Z42	X43	Y43	Z43	X44	Y44	Z44	X45	Y45	Z45	X46	Y46	Z46	X47	Y47	Z47	X48	Y48	Z48	X49	Y49	Z49	

224	2.230	1334.96301	217.29388	1664.33240	1466.76501	214.29604	1656.04089	1332.64124	86.02652	1605.72046	1462.10791	84.12318	1602.61829	1388.21375	86.81570	1452.31543	1401.24487	46.27146	1124.67053	1397.10974	195.75502	1375.09656	1391.90063	233.62138	1198.48462	1466.28491	8.94446	1283.42847	1232.93262	157.92419	1405.98926	1161.15381	194.88181	1207.13525	1149.86279	221.73558	1096.48108	1152.42017	312.72061	975.10486	1222.36316	407.57675	909.30688	1176.74658	368.14178	872.31000	1196.13660	442.09174	823.96094	1554.86902	143.34013	1407.17017	1641.43286	96.99973	1210.16492	1653.87610	103.32616	1087.97290	1671.32007	121.96326	969.25464	1640.47632	187.94670	832.94238	1679.52856	134.23326	832.07855	1681.83362	174.35841	757.47589	1296.03760	217.64720	955.98517	1517.02441	221.99515	972.73560	1326.14893	60.61238	989.12140	1494.44531	69.03369	995.69916	1254.07190	119.62400	643.10846	1278.10608	96.01012	480.83374	1291.88562	6.62395	238.89418	1341.06665	-37.91661	73.67892	1386.46863	-81.03879	64.35190	1342.54700	103.06940	38.62126	1589.34009	224.26384	647.55780	1561.54993	260.48999	529.34564	1575.88416	292.65613	268.83105	1540.93396	342.33026	86.43826	1496.02734	312.90875	52.09052	1540.25378	499.04526	88.64729	1390.90186	114.21513	1700.76538																											 
225	2.240	1336.18848	223.09425	1663.51489	1467.90625	220.15143	1655.13159	1334.17041	91.83889	1604.82397	1463.61023	90.27081	1601.66675	1389.61609	92.81577	1451.50928	1402.30090	52.39546	1123.70471	1398.22729	201.71756	1374.14697	1392.87695	239.53719	1197.59094	1467.63855	15.04125	1282.53442	1234.18152	163.63210	1405.22058	1162.31494	200.18428	1206.27490	1151.17981	226.50281	1095.67908	1153.97168	318.22943	974.53052	1224.17847	413.34137	909.32336	1178.65112	374.07928	872.07538	1198.25525	448.22174	824.00372	1556.08618	149.64961	1406.12524	1642.73706	103.28223	1209.12256	1655.16907	109.45297	1086.97534	1672.58484	127.89856	968.18622	1641.72705	193.50488	831.77509	1680.89343	139.88927	831.01569	1683.15674	179.85161	756.31592	1296.58667	223.55629	955.14026	1517.63586	228.43446	971.84485	1327.14075	66.52473	988.17676	1495.29907	76.48899	994.32483	1254.77966	124.45322	642.50757	1278.68640	99.96148	480.36926	1292.47095	8.60392	239.10231	1341.20911	-37.61942	74.21490	1386.75635	-80.69658	65.11539	1342.61780	103.12646	38.62313	1589.87756	230.63943	646.58344	1561.85913	266.62872	528.36829	1576.47290	298.45483	267.70453	1541.40430	347.56363	85.18118	1496.57800	318.05484	50.71937	1540.33325	504.19937	87.47942	1392.42981	120.09624	1699.86865																											 
226	2.250	1337.58887	228.84587	1662.66833	1469.37134	226.47171	1654.21655	1335.84485	97.62325	1603.95984	1465.25977	96.35973	1600.68115	1391.11475	98.66489	1450.61890	1403.49573	58.37977	1122.85254	1399.42883	207.71753	1373.21240	1393.78064	245.57596	1196.60657	1469.04895	21.08905	1281.59485	1235.45361	169.39282	1404.40698	1163.55017	205.58228	1205.43359	1152.41406	231.81366	1094.82825	1155.60742	323.72110	973.79279	1225.96350	419.08133	909.29633	1180.53589	380.11981	871.72955	1200.34033	454.25946	823.99988	1557.41357	155.95265	1405.03369	1644.08081	109.67535	1208.07043	1656.54834	115.62469	1085.91272	1673.94836	133.89729	967.09271	1643.02734	199.22481	830.49542	1682.29858	145.69379	829.89862	1684.51392	185.46080	755.12659	1297.18994	229.52469	954.29895	1518.32275	234.94858	970.89026	1328.31995	72.65059	987.19293	1496.36548	82.94223	993.32520	1255.48022	129.30560	641.92688	1279.37195	103.84862	479.88644	1292.82190	10.28937	239.34578	1341.39136	-37.18144	74.83590	1386.84253	-80.46281	65.91075	1342.69519	103.22414	38.60914	1590.46619	237.18188	645.56750	1562.35632	272.89291	527.38104	1577.04236	303.65817	266.37518	1541.89685	351.69611	83.59597	1497.30359	321.79172	49.17856	1539.81653	508.32196	85.45208	1394.05115	126.09083	1698.96704																											 
227	2.260	1339.04919	234.78522	1661.86328	1470.87781	232.59590	1653.21069	1337.50232	103.53747	1603.09167	1466.94666	102.54873	1599.72852	1392.58838	104.78452	1449.63574	1404.74683	64.61774	1121.88574	1400.66260	213.76169	1372.29822	1394.82263	251.65825	1195.72815	1470.49194	27.28626	1280.59033	1236.82922	175.13646	1403.63062	1164.81909	211.04785	1204.62134	1153.68066	237.28711	1093.84412	1156.94629	329.38864	973.22601	1227.68066	424.68396	909.04785	1182.37842	385.85306	871.29181	1202.36768	460.24402	823.84656	1558.78149	162.27670	1403.94104	1645.50574	116.05702	1206.97168	1657.92432	121.92847	1084.81555	1675.39087	140.00172	966.00134	1644.42334	205.04953	829.30402	1683.91504	151.63406	828.85028	1685.98010	191.26343	753.98572	1297.85876	235.56865	953.50189	1519.10779	241.59225	969.96198	1329.47009	78.78979	986.23999	1497.50928	89.56966	992.26813	1256.14905	134.24385	641.33850	1280.02539	107.88802	479.42371	1293.19751	12.28479	239.73634	1341.51929	-36.80447	75.49484	1386.86365	-80.34121	67.02605	1342.78003	103.28220	38.62513	1591.15955	243.81631	644.43439	1562.80090	279.29068	526.26587	1577.65808	308.37057	264.88367	1542.42102	354.84702	81.68277	1498.08020	324.59933	47.11856	1539.02234	511.61270	82.95164	1395.78711	132.03746	1698.04248																											 
228	2.270	1340.66968	240.70529	1661.00110	1472.33057	238.60945	1652.21887	1339.30200	109.49657	1602.22864	1468.74280	108.73301	1598.68323	1394.21716	110.80109	1448.70056	1406.14209	70.90636	1120.89148	1402.15540	219.86041	1371.45459	1395.95557	257.80270	1194.89001	1471.98828	33.54224	1279.49390	1238.27429	180.91489	1402.79077	1166.15222	216.51700	1203.79675	1155.09998	242.43288	1093.10840	1158.59644	334.87149	972.45459	1229.36816	430.49246	908.84692	1184.33508	391.71313	870.64142	1204.25171	466.11938	823.55487	1560.24536	168.60016	1402.84900	1646.97412	122.51511	1205.86072	1659.45190	128.27652	1083.71985	1676.86670	146.23334	964.87018	1645.79968	210.92432	828.04462	1685.40723	157.53120	827.79199	1687.44617	197.13593	752.76282	1298.36047	241.61383	952.54248	1520.00439	248.37367	969.02972	1330.67810	84.84122	985.31091	1498.75635	96.23992	991.23621	1256.71582	139.25893	640.78210	1280.57776	111.92671	478.96671	1293.62598	14.42755	240.03174	1341.47449	-36.38533	76.26163	1386.90906	-80.36807	68.19747	1342.83618	103.29289	38.62223	1591.85583	250.57304	643.34576	1563.26111	285.76813	525.05304	1578.43054	312.75974	263.34399	1543.07251	357.06610	79.54940	1499.23352	325.88644	45.21771	1537.72546	513.68872	79.56189	1397.66003	138.05750	1697.10938																											 
